<svg width="88" height="48" viewBox="0 0 88 48" fill="none" xmlns="http://www.w3.org/2000/svg">
<path d="M61.5857 31.0747C60.3797 31.3553 57.2055 31.5169 57.2055 31.5169L56.8035 32.7926C56.8035 32.7926 58.3864 32.6565 59.5422 32.7755C59.5422 32.7755 59.9191 32.733 59.961 33.2093C59.9777 33.6515 59.9275 34.1277 59.9275 34.1277C59.9275 34.1277 59.9023 34.4169 59.5003 34.4849C59.0648 34.5614 56.0832 34.672 56.0832 34.672L55.5975 36.3303C55.5975 36.3303 55.4216 36.713 55.8236 36.6025C56.2005 36.5004 59.3244 35.9051 59.7348 35.9902C60.1703 36.1007 60.6561 36.6875 60.5137 37.2318C60.3462 37.8951 57.2306 39.9192 55.3295 39.7746C55.3295 39.7746 54.3328 39.8426 53.4869 38.4734C52.6997 37.1723 53.7884 34.6975 53.7884 34.6975C53.7884 34.6975 53.2943 33.5409 53.6544 33.1582C53.6544 33.1582 53.8722 32.9626 54.4919 32.9116L55.2541 31.3043C55.2541 31.3043 54.3831 31.3638 53.8638 30.7175C53.378 30.0967 53.3446 29.8161 53.7131 29.646C54.1067 29.4504 57.7331 28.7785 60.229 28.8636C60.229 28.8636 61.1 28.7785 61.8454 30.3093C61.837 30.3093 62.2055 30.9301 61.5857 31.0747V31.0747ZM52.1971 37.2488C51.8789 38.0142 51.033 38.8306 49.9861 38.3203C48.9476 37.8101 47.2977 34.3829 47.2977 34.3829C47.2977 34.3829 46.6695 33.1072 46.5523 33.1327C46.5523 33.1327 46.4183 32.8861 46.3345 34.2808C46.2508 35.6755 46.3513 38.3884 45.8069 38.8136C45.2876 39.2388 44.6595 39.0687 44.3328 38.567C44.0397 38.0737 43.9141 36.9001 44.0732 34.8421C44.2658 32.7841 44.7348 30.5899 45.3379 29.9011C45.9409 29.2208 46.4266 29.714 46.6109 29.8926C46.6109 29.8926 47.4149 30.6325 48.7466 32.8096L48.9811 33.2093C48.9811 33.2093 50.1871 35.2673 50.3127 35.2588C50.3127 35.2588 50.4132 35.3523 50.497 35.2843C50.6226 35.2503 50.5724 34.587 50.5724 34.587C50.5724 34.587 50.3211 32.3503 49.2239 28.5574C49.2239 28.5574 49.0564 28.0812 49.1737 27.639C49.2826 27.1882 49.7265 27.4008 49.7265 27.4008C49.7265 27.4008 51.435 28.2683 52.2558 31.0917C53.0682 33.9406 52.5154 36.4834 52.1971 37.2488V37.2488ZM43.8052 29.9946C43.6628 30.2838 43.5791 30.7005 42.8588 30.8111C42.8588 30.8111 35.966 31.2873 35.6394 31.7805C35.6394 31.7805 35.3965 32.0697 35.7734 32.1547C36.1503 32.2313 37.7081 32.4439 38.4618 32.4864C39.2658 32.4949 41.9794 32.5204 42.9509 33.7535C42.9509 33.7535 43.5288 34.3403 43.5037 35.667C43.4786 37.0277 43.2441 37.5039 42.7248 37.9972C42.1804 38.4564 37.5071 40.5825 34.492 37.3168C34.492 37.3168 33.1017 35.7435 34.9694 34.5529C34.9694 34.5529 36.3178 33.728 39.7432 34.6975C39.7432 34.6975 40.7818 35.0802 40.7315 35.4629C40.6729 35.8711 39.8772 36.3048 38.7215 36.2793C37.5992 36.2453 36.7784 35.701 36.9375 35.7861C37.0883 35.8456 35.7315 35.1227 35.3128 35.616C34.894 36.0667 34.9945 36.3473 35.4049 36.628C36.4518 37.2318 40.497 37.0192 41.703 35.6585C41.703 35.6585 42.1804 35.1057 41.4518 34.655C40.7231 34.2298 38.6377 33.9747 37.8253 33.9321C37.0464 33.8896 34.1486 33.9406 33.7298 33.1582C33.7298 33.1582 33.3111 32.631 33.7717 31.1342C34.2575 29.5694 37.6327 28.9656 39.09 28.8296C39.09 28.8296 43.1017 28.685 43.8387 29.5184C43.8303 29.5184 43.9308 29.714 43.8052 29.9946V29.9946ZM32.4149 39.1708C31.9292 39.5365 30.899 39.3749 30.6059 38.9667C30.3128 38.601 30.2123 37.1468 30.2709 34.8676C30.3295 32.5629 30.3798 29.7055 30.8655 29.2548C31.3848 28.7955 31.703 29.1952 31.9041 29.5099C32.1218 29.8161 32.3814 30.1562 32.4401 30.8791C32.4903 31.602 32.6578 35.3949 32.6578 35.3949C32.6578 35.3949 32.8756 38.8136 32.4149 39.1708ZM33.4618 26.9416C32.0464 27.4178 31.0749 27.2563 30.2541 26.8991C29.894 27.5369 29.6846 27.7325 29.4082 27.775C29.0062 27.8175 28.6461 27.1627 28.5791 26.9501C28.5121 26.7885 28.3195 26.5164 28.554 25.8701C27.75 25.1387 27.6913 24.1522 27.8253 23.4889C28.0263 22.7235 29.3831 19.815 33.5121 19.4748C33.5121 19.4748 35.5305 19.3218 35.8739 20.4188H35.9325C35.9325 20.4188 37.8923 20.4273 37.8504 22.1962C37.8253 23.9736 35.6729 26.1847 33.4618 26.9416V26.9416ZM29.6092 23.0041C29.1905 23.6845 29.1737 24.0927 29.3664 24.3733C29.8438 23.6334 30.7148 22.4683 31.9962 21.5839C31.0079 21.6689 30.1788 22.1027 29.6092 23.0041V23.0041ZM35.3128 21.8645C34.0146 22.0601 32.0046 23.829 31.0498 25.2748C32.5154 25.5469 35.1034 25.4448 36.2508 23.0721C36.2424 23.0721 36.7952 21.6009 35.3128 21.8645ZM70.5556 35.565C69.7767 36.9426 67.5908 39.8171 64.6762 39.1453C63.713 41.518 62.909 43.9077 62.4484 47.4965C62.4484 47.4965 62.3479 48.1938 61.7784 47.9472C61.2172 47.7431 60.2792 46.7906 60.095 45.4725C59.894 43.7376 60.6561 40.8036 62.2055 37.4444C61.7532 36.696 61.4434 35.6245 61.7114 34.1022C61.7114 34.1022 62.105 31.2788 64.8939 28.7275C64.8939 28.7275 65.2289 28.4299 65.4216 28.5234C65.6393 28.6169 65.5388 29.5354 65.363 29.9776C65.1871 30.4199 63.9392 32.614 63.9392 32.614C63.9392 32.614 63.1603 34.0937 63.378 35.2588C64.8437 32.9711 68.177 28.3533 70.2457 29.8075C70.9408 30.3093 71.2591 31.4064 71.2591 32.5885C71.2507 33.6345 71.0078 34.74 70.5556 35.565V35.565ZM69.9526 31.9421C69.9526 31.9421 69.8353 31.0322 68.9643 32.0357C68.2105 32.8776 66.8537 34.4679 65.7566 36.6195C66.904 36.4919 68.0095 35.8541 68.3445 35.5309C68.8889 35.0377 70.1536 33.711 69.9526 31.9421V31.9421ZM29.291 33.0987C29.1319 35.1567 28.353 38.618 22.8337 40.3274C19.1905 41.4414 15.7483 40.9056 13.8723 40.4209C13.8304 41.1778 13.7466 41.501 13.6294 41.6285C13.4702 41.7901 12.281 42.4874 11.6277 41.501C11.3346 41.0332 11.1838 40.1828 11.1001 39.4259C6.87897 37.4529 4.93592 34.6125 4.86055 34.4849C4.76842 34.3914 3.80527 33.3708 4.76842 32.1207C5.67294 30.9896 8.62939 29.8586 11.2927 29.3993C11.3848 27.0862 11.6528 25.3428 11.9711 24.5434C12.3563 23.6164 12.8421 24.4498 13.2609 25.0792C13.6126 25.5469 13.822 27.5624 13.8388 29.1697C15.5808 29.0847 16.6109 29.2122 18.554 29.5694C21.0833 30.0372 22.7751 31.3468 22.6243 32.8351C22.5155 34.2978 21.1922 34.9016 20.6897 34.9441C20.162 34.9867 19.3413 34.604 19.3413 34.604C18.7801 34.3318 19.2994 34.0937 19.9778 33.7961C20.7148 33.4304 20.5473 33.0562 20.5473 33.0562C20.2709 32.2398 16.9878 31.67 13.7215 31.67C13.7048 33.4984 13.7969 36.5344 13.8388 38.3033C16.1252 38.7456 17.8337 38.6605 17.8337 38.6605C17.8337 38.6605 26.1754 38.4224 26.4267 33.0137C26.6863 27.5964 18.1101 22.4003 11.7701 20.7505C5.43844 19.0666 1.85385 20.2402 1.54397 20.4018C1.20896 20.5719 1.51885 20.6229 1.51885 20.6229C1.51885 20.6229 1.86223 20.6739 2.45687 20.878C3.08501 21.0821 2.59925 21.4138 2.59925 21.4138C1.51885 21.7625 0.304441 21.5414 0.0699356 21.0396C-0.16457 20.5379 0.229066 20.0871 0.681326 19.4408C1.13359 18.7605 1.62772 18.786 1.62772 18.786C9.45853 16.0306 18.9979 21.0141 18.9979 21.0141C27.9342 25.6149 29.4585 31.0067 29.291 33.0987V33.0987ZM5.65619 32.8181C4.76842 33.2603 5.37981 33.8981 5.37981 33.8981C7.04647 35.718 9.0984 36.8576 11.0498 37.5635C11.2759 34.4254 11.2424 33.3198 11.2676 31.738C8.219 31.9506 6.46021 32.4439 5.65619 32.8181V32.8181Z" fill="white"/>
<path d="M87.1383 32.1718V33.2943C87.1383 33.5409 86.9456 33.7365 86.7027 33.7365H81.4348C81.4348 34.0172 81.4431 34.2638 81.4431 34.4934C81.4431 36.1518 81.3761 37.5039 81.217 39.0262C81.1919 39.2558 81.0076 39.4259 80.7899 39.4259H79.6508C79.5336 39.4259 79.4247 39.3749 79.3493 39.2898C79.274 39.2048 79.2321 39.0857 79.2488 38.9667C79.408 37.4529 79.4833 36.1178 79.4833 34.4934C79.4833 34.2553 79.4833 34.0087 79.475 33.7365H74.2656C74.0227 33.7365 73.8301 33.5409 73.8301 33.2943V32.1718C73.8301 31.9251 74.0227 31.7295 74.2656 31.7295H79.3996C79.2907 29.9011 79.073 28.1407 78.7212 26.3548C78.7044 26.2443 78.7296 26.1337 78.7966 26.0487C78.8636 25.9636 78.9641 25.9126 79.0729 25.9126H80.3041C80.4967 25.9126 80.6559 26.0487 80.6977 26.2443C81.0411 28.0897 81.2589 29.8841 81.3678 31.7295H86.7027C86.9373 31.7295 87.1383 31.9336 87.1383 32.1718V32.1718Z" fill="white"/>
<path d="M79.9693 23.2677C77.2474 16.4728 72.6494 10.6814 66.6695 6.51429C60.5473 2.25364 53.3697 0 45.9158 0C33.5875 0 22.147 6.21664 15.3212 16.6344C15.2458 16.745 15.2291 16.8895 15.271 17.0171C15.3128 17.1532 15.4133 17.2467 15.539 17.2892L16.4937 17.6209C16.5524 17.6379 16.611 17.6464 16.6613 17.6464C16.8371 17.6464 17.0046 17.5529 17.1051 17.4083C20.2375 12.7309 24.4753 8.84447 29.3664 6.15711C34.4167 3.38471 40.1369 1.91347 45.9074 1.91347C52.884 1.91347 59.6092 4.00552 65.3714 7.95151C70.9911 11.804 75.3546 17.1872 77.9928 23.5059C78.0682 23.693 78.2524 23.8205 78.4534 23.8205H79.5925C79.7265 23.8205 79.8521 23.7525 79.9191 23.6419C80.0028 23.5314 80.0196 23.3953 79.9693 23.2677ZM16.6613 17.3573C16.6361 17.3573 16.611 17.3488 16.5859 17.3403C16.611 17.3488 16.6361 17.3573 16.6613 17.3573ZM78.2189 23.6674C78.2441 23.6845 78.2692 23.7015 78.2943 23.71C78.2692 23.693 78.2441 23.6845 78.2189 23.6674Z" fill="white"/>
</svg>
