<svg width="1920" height="2233" viewBox="0 0 1920 2233" fill="none" xmlns="http://www.w3.org/2000/svg">
<path d="M13 972.183L35.6284 1927.1L110.302 1965.57L74.0968 843.201L13 972.183Z" stroke="white" stroke-width="25"/>
<path d="M920.402 15C321.201 15 177.435 508.3 180.452 754.95C643.884 715.124 1414.46 738.356 1741.81 754.95C1717.68 508.3 1519.6 15 920.402 15Z" stroke="white" stroke-width="30"/>
<path d="M438.414 1467.76C327.988 1469.57 220.427 1827.55 180.45 2006.32L685.064 2166.98C657.91 1705.36 576.448 1465.5 438.414 1467.76Z" stroke="white" stroke-width="30"/>
<path d="M1486.11 1467.76C1596.54 1469.58 1704.1 1828.71 1744.08 2008.05L1239.46 2169.23C1266.62 1706.12 1348.08 1465.49 1486.11 1467.76Z" stroke="white" stroke-width="30"/>
<path d="M1814.22 1963.31L1848.17 852.252L1907 969.92L1886.63 1922.58L1814.22 1963.31Z" stroke="white" stroke-width="25"/>
<path d="M789.155 1101.16L836.675 2212.22L759.738 2191.85C748.424 1895.42 676.013 1442.85 553.82 1316.13C456.065 1214.76 249.09 1153.21 164.611 1135.11L146.508 843.2C845.274 794.323 1550.98 822.835 1782.54 843.201L1746.34 1135.11C1722.2 1138.88 1613.74 1169.95 1427.28 1264.09C1240.82 1358.22 1164.03 1921.82 1148.95 2191.85L1076.54 2212.22L1133.11 1101.16C1319.57 1092.11 1557.77 1031.77 1664.88 1001.6V938.24C955.248 903.845 426.346 923.908 232.496 938.24V997.074C335.682 1038.71 642.071 1084.57 789.155 1101.16Z" stroke="white" stroke-width="30"/>
</svg>
